<?xml version="1.0" standalone="no"?><!DOCTYPE svg PUBLIC "-//W3C//DTD SVG 1.1//EN" "http://www.w3.org/Graphics/SVG/1.1/DTD/svg11.dtd"><svg t="1594720842486" class="icon" viewBox="0 0 1260 1024" version="1.1" xmlns="http://www.w3.org/2000/svg" p-id="11686" xmlns:xlink="http://www.w3.org/1999/xlink" width="78.75" height="64"><defs><style type="text/css"></style></defs><path d="M1166.966154 533.937231a46.611692 46.611692 0 0 1 46.670769-46.552616c25.777231 0 46.670769 20.854154 46.670769 46.552616v282.643692C1260.307692 933.907692 1150.956308 1024 1019.136 1024H240.758154C110.670769 1022.857846 0 926.72 0 809.826462V210.668308C0 93.065846 109.883077 0 241.171692 0H630.153846c25.796923 0 46.670769 20.834462 46.670769 46.552615A46.611692 46.611692 0 0 1 630.153846 93.085538H241.171692c-82.806154 0-147.810462 55.059692-147.810461 117.563077v599.177847c0 62.542769 66.579692 120.379077 147.810461 121.088h777.964308c83.771077 0 147.810462-52.775385 147.810462-114.333539V533.937231z m-737.201231-132.430769L630.153846 601.324308 1063.936 168.782769a46.769231 46.769231 0 0 1 66.008615 0c18.215385 18.176 18.215385 47.655385 0 65.831385L663.158154 700.061538a46.769231 46.769231 0 0 1-66.008616 0L363.756308 467.337846a46.454154 46.454154 0 0 1 0-65.831384 46.769231 46.769231 0 0 1 66.008615 0z" p-id="11687"></path></svg>