<?xml version="1.0" standalone="no"?><!DOCTYPE svg PUBLIC "-//W3C//DTD SVG 1.1//EN" "http://www.w3.org/Graphics/SVG/1.1/DTD/svg11.dtd"><svg t="1594774942252" class="icon" viewBox="0 0 1024 1024" version="1.1" xmlns="http://www.w3.org/2000/svg" p-id="1924" xmlns:xlink="http://www.w3.org/1999/xlink" width="64" height="64"><defs><style type="text/css"></style></defs><path d="M853.333333 85.333333a42.666667 42.666667 0 0 1 42.666667 42.666667v160.298667l-85.333333 85.333333V170.666667H213.333333v682.666666h597.333334v-117.674666l85.333333-85.333334V896a42.666667 42.666667 0 0 1-42.666667 42.666667H170.666667a42.666667 42.666667 0 0 1-42.666667-42.666667V128a42.666667 42.666667 0 0 1 42.666667-42.666667h682.666666z m75.861334 290.474667l60.330666 60.330667L657.664 768l-60.416-0.085333 0.085333-60.245334 331.861334-331.861333zM554.666667 512v85.333333H341.333333v-85.333333h213.333334z m128-170.666667v85.333334H341.333333V341.333333h341.333334z" p-id="1925"></path></svg>