<?xml version="1.0" standalone="no"?><!DOCTYPE svg PUBLIC "-//W3C//DTD SVG 1.1//EN" "http://www.w3.org/Graphics/SVG/1.1/DTD/svg11.dtd"><svg t="1594610038828" class="icon" viewBox="0 0 1024 1024" version="1.1" xmlns="http://www.w3.org/2000/svg" p-id="4212" xmlns:xlink="http://www.w3.org/1999/xlink" width="512" height="512"><defs><style type="text/css"></style></defs><path d="M512 128c-38.4 0-76.8 6.4-112 16l58.016 54.016C477.184 194.816 492.8 192 512 192c90.336 0 170.24 37.856 228 96H640v64h192V160h-64v66.016A380.576 380.576 0 0 0 512 128zM160 192v64h68C166.944 323.808 128 412.512 128 512c0 35.2 6.592 70.016 12.992 102.016L195.008 560C191.808 544 192 528 192 512c0-90.08 37.76-168.96 96-228V384h64V192H160z m720 218.016l-51.008 56.96c3.2 16 3.008 29.024 3.008 45.024 0 89.984-37.056 169.728-96 228V640h-64v192h192v-64h-64.992C860.16 699.744 896 610.4 896 512c0-35.2-6.4-70.016-16-102.016zM192 672v192h64v-68C324 857.76 412.992 896 512 896c32 0 64.192-3.392 92.992-12.992L544 832h-32c-90.336 0-170.24-37.856-228-96H384v-64H192z" p-id="4213"></path></svg>